<svg width="211" height="46" viewBox="0 0 211 46" fill="none" xmlns="http://www.w3.org/2000/svg">
<path d="M14.4184 0.00292969H19.3784V25.299H14.4184V14.8278H4.9944V25.299H0.00683594V0.00292969H4.9944V10.0607H14.4184V0.00292969Z" fill="#7B9ECD"/>
<path d="M38.7499 25.299V9.86783L27.893 25.299H24.0903V0.00292969H29.0779V15.4892L39.9348 0.00292969H43.765V25.299H38.7499Z" fill="#7B9ECD"/>
<path d="M63.1368 25.299V9.86783L52.2799 25.299H48.4497V0.00292969H53.4373V15.4892L64.2942 0.00292969H68.0968V25.299H63.1368Z" fill="#7B9ECD"/>
<path d="M101.935 12.1268C103.561 10.9971 104.415 9.12328 104.305 7.13928C104.443 5.15528 103.561 3.2815 102.073 2.01394C100.585 0.636162 98.6008 -0.10784 96.6168 0.0299379H86.6968V25.3535H97.3608C99.4826 25.4913 101.467 24.7197 102.955 23.3695C104.443 21.9917 105.324 20.118 105.187 18.134C105.297 15.5988 104.057 13.2291 101.935 12.1268ZM91.767 4.63172H96.727C97.471 4.63172 98.1048 5.0175 98.6008 5.5135C99.5928 6.64328 99.5928 8.37928 98.6008 9.50906C98.1048 10.0051 97.471 10.3908 96.727 10.2531H91.767V4.63172ZM99.455 19.8424C98.8212 20.3384 98.0772 20.7242 97.3332 20.7242H91.7395V14.7446H97.4435C98.1875 14.7446 98.9315 15.1304 99.5652 15.6264C100.061 16.2602 100.447 17.0042 100.447 17.7482C100.337 18.4922 99.951 19.2362 99.455 19.8424Z" fill="white"/>
<path d="M107.887 4.76958V0.002468C114.693 -0.13531 120.259 5.51358 120.369 12.43V12.678C120.48 19.5945 115.189 25.2434 108.383 25.3536C108.272 25.3536 108.272 25.3536 108.135 25.3536H107.887V20.5865C109.981 20.5865 111.965 19.8425 113.453 18.3269C114.941 16.8114 115.795 14.7998 115.685 12.678C115.795 10.5563 114.941 8.40692 113.343 6.89136C111.855 5.51358 110.008 4.76958 107.887 4.76958Z" fill="white"/>
<path d="M135.47 4.76958H140.237V0.002468H135.47C128.747 -0.13531 123.236 5.51358 123.098 12.43V12.678C122.988 19.5945 128.251 25.2434 134.974 25.3536C135.085 25.3536 135.085 25.3536 135.222 25.3536H140.237V20.5865H135.47C133.376 20.5865 131.42 19.8425 129.959 18.3269C128.499 16.8114 127.645 14.7998 127.755 12.678C127.645 10.5563 128.499 8.40692 130.069 6.89136C131.557 5.51358 133.376 4.76958 135.47 4.76958Z" fill="white"/>
<path d="M169.06 4.60471V0.00292969H160.656L155.999 7.47049L151.508 0.00292969H142.965V4.60471H148.614L153.133 12.2101L148.118 20.5594H142.965V25.299H151.012L156.027 17.0874L160.932 25.299H169.088V20.5594H163.825L158.92 12.2101L163.439 4.60471H169.06Z" fill="white"/>
<path d="M171.788 4.76958V0.002468C178.594 -0.13531 184.161 5.51358 184.271 12.43V12.678C184.381 19.5945 179.09 25.2434 172.284 25.3536C172.174 25.3536 172.174 25.3536 172.036 25.3536H171.788V20.5865C173.882 20.5865 175.866 19.8425 177.354 18.3269C178.842 16.8114 179.697 14.7998 179.586 12.678C179.697 10.5563 178.842 8.40692 177.244 6.89136C175.756 5.51358 173.882 4.76958 171.788 4.76958Z" fill="white"/>
<path d="M211 20.6145L201.548 0.00292969H196.451L186.999 20.6145V25.3541H211V20.6145ZM192.097 20.6145L199.179 5.23849L206.26 20.6145H192.097Z" fill="white"/>
<path d="M3.91978 42.6588C3.67178 42.7966 3.36867 42.8793 3.09311 42.8517C2.62467 42.8517 2.18378 42.6864 1.798 42.3833C1.49489 42.0251 1.32956 41.5566 1.32956 41.0882C1.32956 40.6197 1.49489 40.1788 1.798 39.7931C2.12867 39.4624 2.59711 39.2971 3.09311 39.3246C3.36867 39.3522 3.64423 39.4073 3.91978 39.5175C4.14023 39.6553 4.33312 39.8482 4.47089 40.0686L5.65578 39.3246C5.38023 38.9113 4.99445 38.5531 4.55356 38.3051C4.11267 38.0571 3.58911 37.9193 3.09311 37.9468C2.294 37.9468 1.49489 38.2224 0.888667 38.7735C-0.296222 40.0135 -0.296222 41.97 0.888667 43.1824C1.43978 43.8162 2.26645 44.1193 3.09311 44.0091C3.61667 44.0366 4.11267 43.8988 4.55356 43.6508C4.96689 43.4028 5.32512 43.0722 5.57312 42.6313L4.38823 41.8873C4.33311 42.218 4.16778 42.4935 3.91978 42.6588Z" fill="white"/>
<path d="M15.9618 38.1396L13.6747 41.3637V38.1396H12.2969V44.009H13.3164L15.6035 40.785V44.009H16.9813V38.1396H15.9618Z" fill="white"/>
<path d="M27.6451 42.659C27.3971 42.7967 27.094 42.8794 26.8184 42.8519C26.35 42.8519 25.9091 42.6865 25.5233 42.3834C24.8895 41.6945 24.8895 40.5923 25.5233 39.9034C26.0468 39.3523 26.8735 39.2421 27.5348 39.6279C27.8104 39.7105 28.0033 39.9034 28.086 40.179L29.2708 39.435C28.9953 39.0216 28.6095 38.6634 28.1686 38.4154C27.7277 38.1674 27.2042 38.0296 26.7082 38.0572C25.0824 38.0021 23.7322 39.2421 23.6771 40.8679C23.6771 40.923 23.6771 40.9505 23.6771 41.0056V41.1985C23.6219 42.8243 24.8619 44.1745 26.4877 44.2296C26.5428 44.2296 26.5704 44.2296 26.6255 44.2296H26.8184C27.3144 44.2021 27.838 44.0919 28.2788 43.8714C28.7473 43.651 29.1331 43.3203 29.3811 42.8519L28.1962 42.1079C28.086 42.3559 27.8655 42.5487 27.6451 42.659Z" fill="white"/>
<path d="M36.1875 38.1396V39.4348H37.7582V44.1192H39.1359V39.4348H40.5964V38.1396H36.1875Z" fill="white"/>
<path d="M48.6699 42.6586V41.6391H50.7917V40.344H48.6699V39.3244H51.0672V38.0293H47.4023V43.8986H51.1775V42.6035H48.6699V42.6586Z" fill="white"/>
<path d="M62.3653 38.1396L60.7946 40.8125L59.224 38.1396H57.8462V44.009H59.224V40.5094L60.7946 42.9894H60.9875L62.5582 40.5094V44.009H63.936V38.1396H62.3653Z" fill="white"/>
<path d="M73.7456 38.1396V40.4268H71.8167V38.1396H70.439V44.009H71.8167V41.6117H73.7456V44.009H75.1234V38.1396H73.7456Z" fill="white"/>
<path d="M86.7246 38.1393V44.0086H88.1024V38.1393H86.7246ZM85.6224 40.5366C85.2366 40.1509 84.7131 39.9029 84.162 39.9029H83.3353V38.0566H81.9575V43.926H84.2446C84.7957 43.8984 85.3193 43.678 85.7051 43.2922C86.0909 42.934 86.3389 42.438 86.3389 41.9144C86.2286 41.3909 85.9806 40.9224 85.6224 40.5366ZM84.6029 42.5758C84.4651 42.7411 84.2722 42.8513 84.0517 42.8513H83.2251V41.3909H84.0517C84.4926 41.446 84.8233 41.7766 84.8784 42.2175C84.7957 42.19 84.7957 42.3829 84.6029 42.5758Z" fill="white"/>
<path d="M96.1758 42.6586V41.6391H98.2975V40.344H96.1758V39.3244H98.5731V38.0293H94.9082V43.8986H98.5731V42.6035H96.1758V42.6586Z" fill="white"/>
<path d="M116.347 38.0576L114.059 41.2816V38.0576H112.682V43.927H113.701L115.988 40.703V43.927H117.366V38.0576H116.347Z" fill="white"/>
<path d="M127.562 38.0576V40.3447H125.633V38.0576H124.255V43.927H125.633V41.6398H127.562V44.0372H128.939V38.1403H127.562V38.0576Z" fill="white"/>
<path d="M139.052 38.0576V40.3447H137.123V38.0576H135.746V43.927H137.123V41.6398H139.052V44.0372H140.43V38.1403H139.052V38.0576Z" fill="white"/>
<path d="M152.472 38.8838C151.232 37.6989 149.275 37.6989 148.063 38.8838C146.906 40.1513 146.988 42.1353 148.256 43.2927C148.862 43.8438 149.634 44.1469 150.46 44.1193C151.232 44.1469 151.948 43.8438 152.472 43.2927C153.078 42.714 153.409 41.9149 153.381 41.0882C153.436 40.2616 153.078 39.4349 152.472 38.8838ZM151.535 42.3833C150.818 43.0447 149.716 43.0171 149.055 42.3007C148.421 41.6118 148.421 40.5647 149.055 39.9033C149.771 39.2696 150.874 39.3522 151.507 40.0687C151.507 40.0687 151.507 40.0687 151.535 40.0962C152.169 40.7025 152.196 41.722 151.535 42.3833C151.562 42.3558 151.562 42.3833 151.535 42.3833Z" fill="white"/>
<path d="M163.77 40.8957C164.459 40.2895 164.514 39.2148 163.88 38.5259C163.852 38.4708 163.797 38.4433 163.77 38.4157C163.384 38.1126 162.888 37.9473 162.392 37.9473H159.995V43.8166H162.475C162.971 43.8166 163.439 43.6513 163.852 43.3482C164.211 43.0175 164.404 42.549 164.404 42.053C164.459 41.6122 164.211 41.1162 163.77 40.8957ZM161.455 39.3526H162.364C162.502 39.3526 162.64 39.4353 162.723 39.5455C162.833 39.6557 162.888 39.7659 162.916 39.9037C162.916 40.0415 162.833 40.1793 162.723 40.2619C162.612 40.3722 162.502 40.4273 162.364 40.4548H161.455V39.3526ZM163.026 42.549C162.916 42.6593 162.805 42.7144 162.668 42.7419H161.483V41.557H162.585C162.723 41.557 162.86 41.6397 162.943 41.7499C163.053 41.8602 163.108 41.9704 163.136 42.1082C163.191 42.2459 163.164 42.4388 163.026 42.549Z" fill="white"/>
<path d="M174.406 38.0576H172.67L170.659 43.927H172.119L172.395 43.0176H174.599L174.875 43.927H176.335L174.406 38.0576ZM172.863 41.8327L173.607 39.6283L174.351 41.8327H172.863Z" fill="white"/>
<path d="M187.385 42.7421V38.0576H186.007V42.7421H184.161V38.0576H182.783V43.927H186.558V45.1118H187.936V42.6318H187.385V42.7421Z" fill="white"/>
<path d="M198.407 38.0575L196.12 41.2815V38.0575H194.742V43.9268H195.762L198.049 40.7028V43.9268H199.427V37.9473L198.407 38.0575Z" fill="white"/>
<path d="M209.98 38.0576L207.693 41.2816V38.0576H206.315V43.927H207.335L209.622 40.703V43.927H211V38.0576H209.98Z" fill="white"/>
</svg>
