<svg width="211" height="46" viewBox="0 0 211 46" fill="none" xmlns="http://www.w3.org/2000/svg">
<path d="M14.4184 0.00244141H19.3784V25.2985H14.4184V14.8273H4.9944V25.2985H0.00683594V0.00244141H4.9944V10.0602H14.4184V0.00244141Z" fill="#7B9ECD"/>
<path d="M38.7499 25.2985V9.86734L27.893 25.2985H24.0903V0.00244141H29.0779V15.4887L39.9348 0.00244141H43.765V25.2985H38.7499Z" fill="#7B9ECD"/>
<path d="M63.1368 25.2985V9.86734L52.2799 25.2985H48.4497V0.00244141H53.4373V15.4887L64.2942 0.00244141H68.0968V25.2985H63.1368Z" fill="#7B9ECD"/>
<path d="M101.935 12.1268C103.561 10.9971 104.415 9.12328 104.305 7.13928C104.443 5.15528 103.561 3.2815 102.073 2.01394C100.585 0.636162 98.6008 -0.10784 96.6168 0.0299379H86.6968V25.3535H97.3608C99.4826 25.4913 101.467 24.7197 102.955 23.3695C104.443 21.9917 105.324 20.118 105.187 18.134C105.297 15.5988 104.057 13.2291 101.935 12.1268ZM91.767 4.63172H96.727C97.471 4.63172 98.1048 5.0175 98.6008 5.5135C99.5928 6.64328 99.5928 8.37928 98.6008 9.50906C98.1048 10.0051 97.471 10.3908 96.727 10.2531H91.767V4.63172ZM99.455 19.8424C98.8212 20.3384 98.0772 20.7242 97.3332 20.7242H91.7395V14.7446H97.4435C98.1875 14.7446 98.9315 15.1304 99.5652 15.6264C100.061 16.2602 100.447 17.0042 100.447 17.7482C100.337 18.4922 99.951 19.2362 99.455 19.8424Z" fill="white"/>
<path d="M107.887 4.76958V0.002468C114.693 -0.13531 120.259 5.51358 120.369 12.43V12.678C120.48 19.5945 115.189 25.2434 108.383 25.3536C108.272 25.3536 108.272 25.3536 108.135 25.3536H107.887V20.5865C109.981 20.5865 111.965 19.8425 113.453 18.3269C114.941 16.8114 115.795 14.7998 115.685 12.678C115.795 10.5563 114.941 8.40692 113.343 6.89136C111.855 5.51358 110.008 4.76958 107.887 4.76958Z" fill="white"/>
<path d="M135.47 4.76958H140.237V0.002468H135.47C128.747 -0.13531 123.236 5.51358 123.098 12.43V12.678C122.988 19.5945 128.251 25.2434 134.974 25.3536C135.085 25.3536 135.085 25.3536 135.222 25.3536H140.237V20.5865H135.47C133.376 20.5865 131.42 19.8425 129.959 18.3269C128.499 16.8114 127.645 14.7998 127.755 12.678C127.645 10.5563 128.499 8.40692 130.069 6.89136C131.557 5.51358 133.376 4.76958 135.47 4.76958Z" fill="white"/>
<path d="M169.06 4.60422V0.00244141H160.656L155.999 7.47L151.508 0.00244141H142.965V4.60422H148.614L153.133 12.2096L148.118 20.5589H142.965V25.2985H151.012L156.027 17.0869L160.932 25.2985H169.088V20.5589H163.825L158.92 12.2096L163.439 4.60422H169.06Z" fill="white"/>
<path d="M171.788 4.76958V0.002468C178.594 -0.13531 184.161 5.51358 184.271 12.43V12.678C184.381 19.5945 179.09 25.2434 172.284 25.3536C172.174 25.3536 172.174 25.3536 172.036 25.3536H171.788V20.5865C173.882 20.5865 175.866 19.8425 177.354 18.3269C178.842 16.8114 179.697 14.7998 179.586 12.678C179.697 10.5563 178.842 8.40692 177.244 6.89136C175.756 5.51358 173.882 4.76958 171.788 4.76958Z" fill="white"/>
<path d="M211 20.614L201.548 0.00244141H196.451L186.999 20.614V25.3536H211V20.614ZM192.097 20.614L199.179 5.238L206.26 20.614H192.097Z" fill="white"/>
<path d="M3.91978 42.6584C3.67178 42.7961 3.36867 42.8788 3.09311 42.8512C2.62467 42.8512 2.18378 42.6859 1.798 42.3828C1.49489 42.0246 1.32956 41.5561 1.32956 41.0877C1.32956 40.6192 1.49489 40.1783 1.798 39.7926C2.12867 39.4619 2.59711 39.2966 3.09311 39.3241C3.36867 39.3517 3.64423 39.4068 3.91978 39.517C4.14023 39.6548 4.33312 39.8477 4.47089 40.0681L5.65578 39.3241C5.38023 38.9108 4.99445 38.5526 4.55356 38.3046C4.11267 38.0566 3.58911 37.9188 3.09311 37.9463C2.294 37.9463 1.49489 38.2219 0.888667 38.773C-0.296222 40.013 -0.296222 41.9695 0.888667 43.1819C1.43978 43.8157 2.26645 44.1188 3.09311 44.0086C3.61667 44.0361 4.11267 43.8984 4.55356 43.6504C4.96689 43.4024 5.32512 43.0717 5.57312 42.6308L4.38823 41.8868C4.33311 42.2175 4.16778 42.493 3.91978 42.6584Z" fill="white"/>
<path d="M15.9618 38.1392L13.6747 41.3632V38.1392H12.2969V44.0085H13.3164L15.6035 40.7845V44.0085H16.9813V38.1392H15.9618Z" fill="white"/>
<path d="M27.6451 42.6585C27.3971 42.7963 27.094 42.8789 26.8184 42.8514C26.35 42.8514 25.9091 42.686 25.5233 42.3829C24.8895 41.694 24.8895 40.5918 25.5233 39.9029C26.0468 39.3518 26.8735 39.2416 27.5348 39.6274C27.8104 39.71 28.0033 39.9029 28.086 40.1785L29.2708 39.4345C28.9953 39.0211 28.6095 38.6629 28.1686 38.4149C27.7277 38.1669 27.2042 38.0291 26.7082 38.0567C25.0824 38.0016 23.7322 39.2416 23.6771 40.8674C23.6771 40.9225 23.6771 40.95 23.6771 41.0051V41.198C23.6219 42.8238 24.8619 44.174 26.4877 44.2292C26.5428 44.2292 26.5704 44.2292 26.6255 44.2292H26.8184C27.3144 44.2016 27.838 44.0914 28.2788 43.8709C28.7473 43.6505 29.1331 43.3198 29.3811 42.8514L28.1962 42.1074C28.086 42.3554 27.8655 42.5483 27.6451 42.6585Z" fill="white"/>
<path d="M36.1875 38.1392V39.4343H37.7582V44.1187H39.1359V39.4343H40.5964V38.1392H36.1875Z" fill="white"/>
<path d="M48.6699 42.6586V41.6391H50.7917V40.344H48.6699V39.3244H51.0672V38.0293H47.4023V43.8986H51.1775V42.6035H48.6699V42.6586Z" fill="white"/>
<path d="M62.3653 38.1392L60.7946 40.8121L59.224 38.1392H57.8462V44.0085H59.224V40.5089L60.7946 42.9889H60.9875L62.5582 40.5089V44.0085H63.936V38.1392H62.3653Z" fill="white"/>
<path d="M73.7456 38.1392V40.4263H71.8167V38.1392H70.439V44.0085H71.8167V41.6112H73.7456V44.0085H75.1234V38.1392H73.7456Z" fill="white"/>
<path d="M86.7246 38.1388V44.0082H88.1024V38.1388H86.7246ZM85.6224 40.5362C85.2366 40.1504 84.7131 39.9024 84.162 39.9024H83.3353V38.0562H81.9575V43.9255H84.2446C84.7957 43.8979 85.3193 43.6775 85.7051 43.2917C86.0909 42.9335 86.3389 42.4375 86.3389 41.9139C86.2286 41.3904 85.9806 40.9219 85.6224 40.5362ZM84.6029 42.5753C84.4651 42.7406 84.2722 42.8508 84.0517 42.8508H83.2251V41.3904H84.0517C84.4926 41.4455 84.8233 41.7762 84.8784 42.217C84.7957 42.1895 84.7957 42.3824 84.6029 42.5753Z" fill="white"/>
<path d="M96.1758 42.6586V41.6391H98.2975V40.344H96.1758V39.3244H98.5731V38.0293H94.9082V43.8986H98.5731V42.6035H96.1758V42.6586Z" fill="white"/>
<path d="M116.347 38.0571L114.059 41.2811V38.0571H112.682V43.9265H113.701L115.988 40.7025V43.9265H117.366V38.0571H116.347Z" fill="white"/>
<path d="M127.562 38.0571V40.3442H125.633V38.0571H124.255V43.9265H125.633V41.6394H127.562V44.0367H128.939V38.1398H127.562V38.0571Z" fill="white"/>
<path d="M139.052 38.0571V40.3442H137.123V38.0571H135.746V43.9265H137.123V41.6394H139.052V44.0367H140.43V38.1398H139.052V38.0571Z" fill="white"/>
<path d="M152.472 38.8838C151.232 37.6989 149.275 37.6989 148.063 38.8838C146.906 40.1513 146.988 42.1353 148.256 43.2927C148.862 43.8438 149.634 44.1469 150.46 44.1193C151.232 44.1469 151.948 43.8438 152.472 43.2927C153.078 42.714 153.409 41.9149 153.381 41.0882C153.436 40.2616 153.078 39.4349 152.472 38.8838ZM151.535 42.3833C150.818 43.0447 149.716 43.0171 149.055 42.3007C148.421 41.6118 148.421 40.5647 149.055 39.9033C149.771 39.2696 150.874 39.3522 151.507 40.0687C151.507 40.0687 151.507 40.0687 151.535 40.0962C152.169 40.7025 152.196 41.722 151.535 42.3833C151.562 42.3558 151.562 42.3833 151.535 42.3833Z" fill="white"/>
<path d="M163.77 40.8952C164.459 40.289 164.514 39.2143 163.88 38.5254C163.852 38.4703 163.797 38.4428 163.77 38.4152C163.384 38.1121 162.888 37.9468 162.392 37.9468H159.995V43.8161H162.475C162.971 43.8161 163.439 43.6508 163.852 43.3477C164.211 43.017 164.404 42.5486 164.404 42.0526C164.459 41.6117 164.211 41.1157 163.77 40.8952ZM161.455 39.3521H162.364C162.502 39.3521 162.64 39.4348 162.723 39.545C162.833 39.6552 162.888 39.7654 162.916 39.9032C162.916 40.041 162.833 40.1788 162.723 40.2614C162.612 40.3717 162.502 40.4268 162.364 40.4543H161.455V39.3521ZM163.026 42.5486C162.916 42.6588 162.805 42.7139 162.668 42.7414H161.483V41.5566H162.585C162.723 41.5566 162.86 41.6392 162.943 41.7494C163.053 41.8597 163.108 41.9699 163.136 42.1077C163.191 42.2454 163.164 42.4383 163.026 42.5486Z" fill="white"/>
<path d="M174.406 38.0571H172.67L170.659 43.9265H172.119L172.395 43.0171H174.599L174.875 43.9265H176.335L174.406 38.0571ZM172.863 41.8322L173.607 39.6278L174.351 41.8322H172.863Z" fill="white"/>
<path d="M187.385 42.7416V38.0571H186.007V42.7416H184.161V38.0571H182.783V43.9265H186.558V45.1114H187.936V42.6314H187.385V42.7416Z" fill="white"/>
<path d="M198.407 38.057L196.12 41.281V38.057H194.742V43.9263H195.762L198.049 40.7023V43.9263H199.427V37.9468L198.407 38.057Z" fill="white"/>
<path d="M209.98 38.0571L207.693 41.2811V38.0571H206.315V43.9265H207.335L209.622 40.7025V43.9265H211V38.0571H209.98Z" fill="white"/>
</svg>
