<svg width="41" height="41" viewBox="0 0 41 41" fill="none" xmlns="http://www.w3.org/2000/svg">
<g clip-path="url(#clip0_127_170)">
<path d="M15.4346 21.8397L11.7222 18.1804C11.5129 17.9689 11.4361 17.6587 11.5268 17.3696C11.6175 17.0806 11.8618 16.8761 12.1549 16.8338L17.2839 16.0794L19.5867 11.3907C19.7193 11.1228 19.9914 10.9536 20.2845 10.9536C20.5776 10.9536 20.8497 11.1228 20.9823 11.3907L23.2781 16.0864L28.4071 16.8408C28.7002 16.8831 28.9445 17.0947 29.0352 17.3767C29.1259 17.6657 29.0491 17.976 28.8398 18.1875L25.1274 21.8467L25.9997 27.0077C26.0485 27.3039 25.9299 27.6 25.6926 27.7833C25.4554 27.9596 25.1344 27.9807 24.8692 27.8468L20.2845 25.4073L15.6998 27.8468C15.4346 27.9878 15.1206 27.9596 14.8764 27.7833C14.6391 27.607 14.5135 27.3039 14.5693 27.0077L15.4346 21.8397ZM17.0466 21.6987L16.3767 25.6893L19.9216 23.8068C20.1519 23.6869 20.4241 23.6869 20.6474 23.8068L24.1923 25.6893L23.5154 21.6987C23.4805 21.4448 23.5643 21.191 23.7387 21.0148L26.6137 18.1663L22.6292 17.5882C22.371 17.5529 22.1547 17.3908 22.036 17.1511L20.2845 13.513L18.512 17.144C18.4004 17.3767 18.1771 17.5388 17.9189 17.5811L13.9553 18.1663L16.8303 21.0148C17.0047 21.1981 17.0885 21.4519 17.0466 21.6987Z" fill="white"/>
<path d="M27.2766 21.6002L29.6213 21.2477L30.675 19.0902C30.8076 18.8223 31.0797 18.646 31.3798 18.646C31.6798 18.646 31.952 18.8152 32.0846 19.0902L33.1313 21.2477L35.476 21.6002C35.7691 21.6425 36.0133 21.854 36.104 22.136C36.1947 22.4251 36.118 22.7353 35.9086 22.9468L34.199 24.6319L34.5898 27.0009C34.6456 27.3041 34.5269 27.6073 34.2827 27.7906C34.0385 27.9668 33.7245 27.988 33.4593 27.847L31.3449 26.7259L29.2724 27.8399C29.0072 27.9809 28.6932 27.9527 28.4489 27.7765C28.2117 27.6002 28.0861 27.297 28.1419 27.0009L28.5327 24.6319L26.823 22.9468C26.6137 22.7353 26.5369 22.4251 26.6276 22.136C26.7183 21.847 26.9626 21.6425 27.2557 21.6002H27.2766ZM29.9283 23.7788C30.1097 23.9621 30.2005 24.223 30.1516 24.4768L29.9492 25.6825L31.0169 25.1184C31.2472 24.9985 31.5193 24.9985 31.7426 25.1184L32.8243 25.6895L32.6219 24.4839C32.58 24.23 32.6568 23.9621 32.8452 23.7788L33.7175 22.9186L32.5172 22.7424C32.266 22.7071 32.0427 22.5379 31.9311 22.3052L31.3937 21.2053L30.8355 22.3052C30.7238 22.5379 30.5005 22.7001 30.2423 22.7424L29.0421 22.9186L29.9283 23.7788Z" fill="white"/>
<path d="M4.4231 22.136C4.51381 21.854 4.75107 21.6495 5.03718 21.6002L7.38186 21.2547L8.44255 19.0902C8.57514 18.8223 8.84729 18.646 9.14735 18.646C9.44741 18.646 9.71956 18.8152 9.85215 19.0902L10.8989 21.2477L13.2436 21.5931C13.5366 21.6354 13.7809 21.847 13.8716 22.129C13.9623 22.418 13.8856 22.7283 13.6762 22.9398L11.9665 24.6249L12.3573 26.9939C12.3992 27.2759 12.2806 27.5509 12.0642 27.7271C11.8409 27.9034 11.5479 27.9457 11.2897 27.8399L9.18224 26.7189L7.06784 27.8399C6.80267 27.9809 6.48865 27.9527 6.24441 27.7765C6.00715 27.6002 5.88155 27.297 5.93737 27.0009L6.32815 24.6319L4.61849 22.9468C4.40216 22.7424 4.33238 22.4251 4.4231 22.136ZM7.71682 23.7788C7.89825 23.9621 7.98199 24.223 7.94012 24.4768L7.73775 25.6825L8.81239 25.1184C9.04268 24.9986 9.31483 24.9986 9.53813 25.1184L10.6058 25.6895L10.4034 24.4839C10.3616 24.223 10.4453 23.9621 10.6267 23.7788L11.492 22.9186L10.2918 22.7424C10.0336 22.7071 9.81726 22.545 9.69863 22.3052L9.16131 21.2053L8.62398 22.3052C8.51233 22.5379 8.28903 22.7001 8.03781 22.7424L6.83756 22.9186L7.71682 23.7788Z" fill="white"/>
</g>
<path d="M40.0275 20.2638C40.0275 31.179 31.179 40.0275 20.2638 40.0275C9.34854 40.0275 0.5 31.179 0.5 20.2638C0.5 9.34854 9.34854 0.5 20.2638 0.5C31.179 0.5 40.0275 9.34854 40.0275 20.2638Z" stroke="white"/>
<defs>
<clipPath id="clip0_127_170">
<rect width="31.7648" height="16.9778" fill="white" transform="matrix(-1 0 0 1 36.146 10.9536)"/>
</clipPath>
</defs>
</svg>
