<svg width="41" height="41" viewBox="0 0 41 41" fill="none" xmlns="http://www.w3.org/2000/svg">
<g clip-path="url(#clip0_127_188)">
<path d="M10.0521 11.8141C9.61923 11.8141 9.31055 11.5078 9.31055 11.1416C9.31055 10.7121 9.61923 10.4058 10.0521 10.4058H12.8905C13.2595 10.4058 13.5682 10.6522 13.632 11.0184L14.001 13.2822H17.3965C17.7655 13.2822 18.0742 13.5885 18.0742 13.9547C18.0742 14.3842 17.7655 14.6905 17.3965 14.6905H14.2494L14.9909 18.9154L15.7325 22.9572L27.6432 23.017L29.1227 14.6905H25.9756C25.6066 14.6905 25.2979 14.3842 25.2979 13.9547C25.2979 13.5885 25.6066 13.2822 25.9756 13.2822H29.9849C30.4177 13.2822 30.7264 13.6484 30.6626 14.1377L28.9311 23.8162C28.8708 24.1824 28.5621 24.4288 28.1896 24.4288L15.9702 24.369L16.2186 25.8371H27.7603C28.9311 25.8371 29.8572 26.8159 29.8572 27.9813C29.8572 29.1431 28.9311 30.1254 27.7603 30.1254C26.5256 30.1254 25.5995 29.1466 25.5995 27.9813C25.5995 27.7348 25.5995 27.4919 25.7237 27.2454H17.8258C17.8861 27.4919 17.95 27.7348 17.95 27.9813C17.95 29.1431 16.9636 30.1254 15.7892 30.1254C14.6184 30.1254 13.6285 29.1466 13.6285 27.9813C13.6285 27.3687 13.8769 26.8793 14.2458 26.4497C14.4303 26.3265 14.6148 26.1434 14.8029 26.0836L12.2731 11.8141H10.0521ZM27.7603 27.2454H27.7C27.5155 27.2454 27.331 27.3687 27.2068 27.4919C27.0826 27.6151 27.0223 27.7982 27.0223 27.9813C27.0223 28.3474 27.331 28.7171 27.7638 28.7171C28.1328 28.7171 28.4415 28.3509 28.4415 27.9813C28.438 27.5517 28.1293 27.2454 27.7603 27.2454ZM15.7892 27.2454C15.6047 27.2454 15.4202 27.3687 15.2961 27.4919C15.1719 27.6151 15.0477 27.7982 15.0477 27.9813C15.0477 28.3474 15.4167 28.7171 15.7892 28.7171C16.1582 28.7171 16.5308 28.3509 16.5308 27.9813C16.5308 27.5517 16.1582 27.2454 15.7892 27.2454ZM23.3181 16.7748C23.6268 16.4685 24.0597 16.4685 24.3684 16.7748C24.6167 17.0811 24.6167 17.5106 24.3684 17.7535L22.2076 19.8977C22.0834 20.0209 21.8989 20.1441 21.6506 20.1441C21.4661 20.1441 21.2816 20.0209 21.1574 19.8977L18.9967 17.7535C18.7483 17.5071 18.7483 17.0811 18.9967 16.7748C19.3053 16.4685 19.7382 16.4685 20.0469 16.7748L20.9729 17.6937V11.5676C20.9729 11.2014 21.2816 10.8951 21.6506 10.8951C22.0834 10.8951 22.3921 11.2014 22.3921 11.5676V17.6937L23.3181 16.7748Z" fill="white"/>
</g>
<circle cx="20.2638" cy="20.2638" r="19.7638" stroke="white"/>
<defs>
<clipPath id="clip0_127_188">
<rect width="21.3591" height="19.7161" fill="white" transform="translate(9.31055 10.4058)"/>
</clipPath>
</defs>
</svg>
