<svg width="41" height="41" viewBox="0 0 41 41" fill="none" xmlns="http://www.w3.org/2000/svg">
<path d="M34.028 30.6251L32.8453 28.4361H33.5969C33.7848 28.4361 33.9561 28.3256 34.0335 28.1542C34.1109 27.9829 34.0833 27.7783 33.9617 27.6401L28.236 20.8631C28.1421 20.7581 28.0094 20.6917 27.8713 20.6917H22.2782C22.3446 20.5369 22.3998 20.3766 22.433 20.2053H23.1957C23.3891 20.2053 23.5604 20.0947 23.6433 19.9178C23.7428 19.6967 23.8312 19.4701 23.9197 19.2379H27.302C27.5341 19.2434 27.7331 19.0831 27.7884 18.862C27.7884 18.8123 28.7555 14.2242 24.7653 11.6427C24.0634 7.04364 20.5594 3.57772 20.4102 3.42295C20.2223 3.24053 19.9239 3.24053 19.7304 3.42295C19.5646 3.58325 16.0607 7.04917 15.3754 11.6483C11.3575 14.2298 12.3247 18.8178 12.3247 18.8676C12.3744 19.0942 12.5789 19.249 12.811 19.2434H16.1934C16.2818 19.4756 16.3702 19.7022 16.4697 19.9234C16.5471 20.1003 16.7239 20.2108 16.9174 20.2108H17.6911C17.7243 20.3766 17.7795 20.5369 17.8458 20.6973H12.2528C12.1091 20.6973 11.9765 20.7581 11.8881 20.8686L6.15137 27.6346C6.02979 27.7783 6.00215 27.9773 6.07953 28.1487C6.1569 28.3201 6.32823 28.4306 6.51613 28.4306H7.26776L6.09611 30.6251C6.00768 30.7744 6.00768 30.9568 6.09611 31.1116C6.18453 31.2553 6.35033 31.3437 6.52166 31.3382H33.6024C33.7738 31.3382 33.9285 31.2498 34.0169 31.1005C34.0998 30.9513 34.1054 30.7744 34.028 30.6251ZM24.8979 12.9584C26.4122 14.285 27.1638 16.2806 26.9041 18.2816H24.2236C24.6934 16.5404 24.92 14.7549 24.8979 12.9584ZM20.062 4.4677C21.1176 5.64511 22.013 6.96072 22.7149 8.38136C21.0679 9.32661 19.0451 9.32661 17.3982 8.38136C18.1056 6.96072 19.0009 5.64511 20.062 4.4677ZM13.22 18.2761C12.9603 16.2806 13.7119 14.285 15.2262 12.9528C15.2041 14.7494 15.4307 16.5404 15.9004 18.2761H13.22ZM17.249 19.2434C16.5194 17.3142 16.1602 15.2634 16.1934 13.1961C16.2099 11.8473 16.4918 10.5096 17.0168 9.26581C18.9125 10.3161 21.2171 10.3161 23.1073 9.26581C23.6323 10.5096 23.9086 11.8473 23.9307 13.1961C23.9639 15.2579 23.6047 17.3087 22.8751 19.2434H17.249ZM21.4271 20.2108C21.289 20.5867 21.0071 20.8907 20.6368 21.0455C20.2721 21.2058 19.852 21.2058 19.4873 21.0455C19.1225 20.8852 18.8351 20.5867 18.697 20.2108H21.4271ZM12.4739 21.6646H18.6085C19.023 21.9852 19.537 22.1621 20.0565 22.1621C20.5816 22.1621 21.09 21.9907 21.5045 21.6646H27.6391L32.5468 27.4688H7.5662L12.4739 21.6646ZM7.32856 30.3709L8.3731 28.4361H31.751L32.7955 30.3709H7.32856Z" fill="white"/>
<path d="M20.9689 11.9502H19.0346C18.6477 11.9502 18.2829 12.105 18.0066 12.3758C17.7303 12.6467 17.5811 13.0171 17.5811 13.404V15.3387C17.5811 15.7257 17.7358 16.0905 18.0066 16.3669C18.2774 16.6433 18.6477 16.7925 19.0346 16.7925H20.9689C21.3558 16.7925 21.7205 16.6377 21.9969 16.3669C22.2732 16.096 22.4224 15.7257 22.4224 15.3387V13.404C22.4224 13.0171 22.2677 12.6522 21.9969 12.3758C21.7205 12.0994 21.3503 11.9502 20.9689 11.9502ZM21.4497 15.3332C21.4497 15.4603 21.4 15.5819 21.306 15.6759C21.2121 15.7699 21.0905 15.8196 20.9634 15.8196H19.029C18.7638 15.8196 18.5427 15.6041 18.5427 15.3332V13.3985C18.5427 13.1331 18.7582 12.912 19.029 12.912H20.9634C21.0905 12.912 21.2121 12.9618 21.306 13.0558C21.3945 13.1442 21.4497 13.2713 21.4497 13.3985V15.3332Z" fill="white"/>
<path d="M18.0674 22.5913C17.8021 22.5913 17.5811 22.8069 17.5811 23.0778V24.526C17.5811 24.7914 17.7966 25.0125 18.0674 25.0125C18.3382 25.0125 18.5538 24.7969 18.5538 24.526V23.0778C18.5538 22.9506 18.504 22.829 18.4101 22.735C18.3161 22.6411 18.1945 22.5913 18.0674 22.5913Z" fill="white"/>
<path d="M21.9361 22.5913C21.6708 22.5913 21.4497 22.8069 21.4497 23.0778V24.526C21.4497 24.7914 21.6652 25.0125 21.9361 25.0125C22.2013 25.0125 22.4224 24.7969 22.4224 24.526V23.0778C22.4224 22.9506 22.3727 22.829 22.2787 22.735C22.1848 22.6411 22.0632 22.5913 21.9361 22.5913Z" fill="white"/>
<path d="M20.0015 23.5586C19.7362 23.5586 19.5151 23.7742 19.5151 24.045V25.9798C19.5151 26.2451 19.7307 26.4662 20.0015 26.4662C20.2668 26.4662 20.4823 26.2506 20.4823 25.9798V24.045C20.4823 23.9179 20.4326 23.7963 20.3386 23.7023C20.2447 23.6083 20.1286 23.5586 20.0015 23.5586Z" fill="white"/>
<circle cx="20.2638" cy="20.2638" r="19.7638" stroke="white"/>
</svg>
