<svg width="41" height="41" viewBox="0 0 41 41" fill="none" xmlns="http://www.w3.org/2000/svg">
<path d="M31.8505 19.4214H31.2V15.5472C31.2 15.2838 30.9965 15.0762 30.7382 15.0762H27.8632V12.463C27.8632 12.1996 27.6944 11.9515 27.4461 11.9515H26.2892V10.3461C26.2892 10.1941 26.2246 10.0523 26.1055 9.96623C25.9863 9.88013 25.8373 9.83456 25.6983 9.87001L18.7615 11.9515H11.9985C11.7403 11.9515 11.5467 12.1996 11.5467 12.463V14.2L8.68656 15.0711H8.67663C8.43332 15.0711 8.22974 15.2686 8.21484 15.5168V15.5472V30.1984C8.21484 30.4617 8.41843 30.6693 8.67663 30.6693H30.7382C30.9965 30.6693 31.2 30.4617 31.2 30.1984V26.0405H31.8505C32.1087 26.0405 32.3123 25.843 32.3123 25.5847V19.9126C32.3123 19.6493 32.1087 19.4214 31.8505 19.4214ZM25.3606 10.9791V11.9515H22.0238L25.3606 10.9791ZM26.9397 12.8985V15.0711H12.4802V12.8985H26.9397ZM30.2765 29.7274H9.14339V16.0181H11.8396C11.8943 16.0384 11.9489 16.0181 12.0085 16.0181H27.4511C27.5057 16.0181 27.5603 16.0384 27.6199 16.0181H30.2814V19.4214H22.148C21.9543 19.4214 21.7756 19.5531 21.711 19.7506L20.6931 22.8348C20.6583 22.9411 20.6633 23.0627 20.703 23.164L21.7209 25.7519C21.7954 25.9291 21.9642 26.0456 22.148 26.0456H30.2765V29.7274ZM31.3887 25.0935H30.8525C30.8177 25.0935 30.778 25.0732 30.7432 25.0732C30.7085 25.0732 30.6687 25.0935 30.634 25.0935H22.4509L21.6067 22.9563L22.4707 20.3684H31.3887V25.0935ZM24.4371 24.6377C25.4649 24.6377 26.2892 23.7869 26.2892 22.7487C26.2892 21.7004 25.455 20.8597 24.4371 20.8597C23.4191 20.8597 22.5849 21.7105 22.5849 22.7487C22.58 23.7869 23.4142 24.6377 24.4371 24.6377ZM24.4371 21.7915C24.9485 21.7915 25.3656 22.2169 25.3656 22.7386C25.3656 23.2602 24.9485 23.6856 24.4371 23.6856C23.9256 23.6856 23.5085 23.2602 23.5085 22.7386C23.5085 22.2169 23.9256 21.7915 24.4371 21.7915Z" fill="white"/>
<circle cx="20.2638" cy="20.2638" r="19.7638" stroke="white"/>
</svg>
