<svg width="41" height="41" viewBox="0 0 41 41" fill="none" xmlns="http://www.w3.org/2000/svg">
<g clip-path="url(#clip0_127_176)">
<path d="M9.75375 30.1218H30.2263C31.3628 30.1218 32.3126 29.1873 32.3126 28.0693V15.9709C32.3126 14.8529 31.3628 13.9184 30.2263 13.9184H23.1958V13.5429C23.1958 11.8158 21.771 10.4141 20.0155 10.4141C18.26 10.4141 16.8352 11.8158 16.8352 13.5429V13.9101H9.75375C8.61733 13.9101 7.66748 14.8446 7.66748 15.9626V28.0192C7.66748 29.1873 8.61733 30.1218 9.75375 30.1218ZM17.9292 13.5346C17.9292 12.4165 18.8791 11.4821 20.0155 11.4821C21.1519 11.4821 22.1018 12.4165 22.1018 13.5346V13.9101H17.9292V13.5346ZM8.7615 15.9626C8.7615 15.4036 9.18554 14.9781 9.76223 14.9781H30.2263C30.7945 14.9781 31.2271 15.3952 31.2271 15.9626V28.0192C31.2271 28.5782 30.803 29.0038 30.2263 29.0038H9.75375C9.18554 29.0038 8.75302 28.5866 8.75302 28.0192L8.7615 15.9626Z" fill="white"/>
<path d="M12.705 20.777C13.8414 20.777 14.7489 19.8926 14.7489 18.7662C14.7489 17.6481 13.8499 16.7554 12.705 16.7554C11.5686 16.7554 10.6611 17.6398 10.6611 18.7662C10.6611 19.8926 11.611 20.777 12.705 20.777ZM12.705 17.8317C13.2308 17.8317 13.6548 18.2489 13.6548 18.7662C13.6548 19.2835 13.2308 19.7007 12.705 19.7007C12.1792 19.7007 11.7552 19.2835 11.7552 18.7662C11.7552 18.2572 12.1792 17.8317 12.705 17.8317Z" fill="white"/>
<path d="M10.0928 27.2266H15.317C15.6053 27.2266 15.8852 26.993 15.8852 26.6676V24.8904C15.8852 23.1632 14.4604 21.8032 12.7473 21.8032C11.0342 21.8032 9.60942 23.205 9.60942 24.8904V26.6676C9.56701 26.993 9.80447 27.2266 10.0928 27.2266ZM10.661 24.8904C10.661 23.7723 11.56 22.8796 12.7049 22.8796C13.8413 22.8796 14.7488 23.764 14.7488 24.8904V26.1503H10.6101V24.8904H10.661Z" fill="white"/>
<path d="M20.5411 19.7006H28.759C29.0473 19.7006 29.3272 19.4669 29.3272 19.1415C29.3272 18.8161 29.0897 18.5825 28.759 18.5825H20.5411C20.2527 18.5825 19.9729 18.8161 19.9729 19.1415C19.9644 19.4669 20.2019 19.7006 20.5411 19.7006Z" fill="white"/>
<path d="M20.5411 22.5541H28.759C29.0473 22.5541 29.3272 22.3205 29.3272 21.9951C29.3272 21.6697 29.0897 21.436 28.759 21.436H20.5411C20.2527 21.436 19.9729 21.6697 19.9729 21.9951C19.9644 22.3205 20.2019 22.5541 20.5411 22.5541Z" fill="white"/>
<path d="M20.5414 25.3578H28.7592C29.0476 25.3578 29.3274 25.1242 29.3274 24.7988C29.3274 24.5151 29.09 24.2397 28.7592 24.2397H20.5414C20.253 24.2397 19.9731 24.4734 19.9731 24.7988C19.9731 25.1242 20.2021 25.3578 20.5414 25.3578Z" fill="white"/>
</g>
<circle cx="20.2638" cy="20.2638" r="19.7638" stroke="white"/>
<defs>
<clipPath id="clip0_127_176">
<rect width="24.6451" height="19.7161" fill="white" transform="translate(7.66748 10.4058)"/>
</clipPath>
</defs>
</svg>
